<svg preserveAspectRatio="none" overflow="visible" style="display: block;" width="66.235" height="19.0001" viewBox="0 0 66.235 19.0001" fill="none" xmlns="http://www.w3.org/2000/svg">
<g id="Group">
<path id="Vector" d="M44.2601 5.5269C43.0958 5.5269 41.7046 5.94053 40.3726 7.37837C39.0406 5.94053 37.6396 5.5269 36.4852 5.5269C36.4852 5.5269 32.0353 5.19206 32.0353 10.3821V18.7826H35.2617V10.8548C35.2617 8.53061 36.8207 8.48137 37.1265 8.5503C37.1265 8.5503 37.6889 8.57985 38.202 9.11165C38.202 9.11165 37.1759 10.451 37.0969 12.1351C37.0969 12.1351 36.87 16.4978 40.3726 16.4978C43.8753 16.4978 43.6484 12.1351 43.6484 12.1351C43.5694 10.451 42.5433 9.11165 42.5433 9.11165C43.0564 8.57985 43.6188 8.5503 43.6188 8.5503C43.9148 8.48137 45.4836 8.53061 45.4836 10.8548V18.7826H48.71V10.3821C48.7001 5.19206 44.2601 5.5269 44.2601 5.5269ZM40.3628 14.1343C39.6721 14.1343 39.4452 13.2676 39.4353 12.4404C39.4156 11.0025 40.3529 9.96845 40.3628 9.94875C40.3825 9.96845 41.31 11.0025 41.2902 12.4404C41.2902 13.2676 41.0534 14.1343 40.3628 14.1343Z" fill="#726E68"/>
<path id="Vector_2" d="M30.2215 5.74101H26.9951V18.7899H30.2215V5.74101Z" fill="#726E68"/>
<path id="Vector_3" d="M28.6137 0.0910326C27.5382 0.0910326 26.6502 0.957678 26.6502 2.02129C26.6502 3.09474 27.5284 3.98109 28.6137 3.98109C29.6793 3.98109 30.5476 3.10459 30.5476 2.02129C30.5476 0.977374 29.6694 0.0910326 28.6137 0.0910326Z" fill="#726E68"/>
<path id="Vector_4" d="M16.783 6.61813V0.000113487H13.5862V18.7905H16.783V9.38548C22.0813 6.81509 21.884 10.8824 21.884 10.8824V18.7905H25.0907V10.8824C25.0808 3.24018 18.3912 5.76133 16.783 6.61813Z" fill="#726E68"/>
<path id="Vector_5" d="M53.1406 12.9041C54.8574 13.5048 57.038 13.4556 57.038 13.4556C62.2081 13.426 62.0601 9.67384 62.0601 9.67384C61.9318 5.44894 56.959 5.52773 56.959 5.52773C52.8446 5.52773 49.9636 8.34432 49.9636 12.3722C49.9636 16.4002 52.7854 19.0001 57.1465 19.0001C59.0014 19.0001 60.7675 18.488 62.0009 17.5918V14.4896C60.7083 15.6025 59.1593 16.1934 57.5214 16.1934C57.5313 16.1934 53.0518 16.4199 53.1406 12.9041ZM53.5353 10.1564C54.078 8.78749 55.2028 8.06857 56.8012 8.06857C58.1134 8.06857 58.8731 8.62008 58.8731 9.49657C58.8731 10.7276 57.482 10.8359 56.1796 10.8359C54.8969 10.8359 54.1076 10.6981 53.7524 10.6094L53.407 10.5306L53.5353 10.1564Z" fill="#726E68"/>
<path id="Vector_6" d="M6.96586 19C9.23519 19 10.8435 18.1432 11.8005 17.4243V14.3024C10.3896 15.4153 8.73199 16.0554 7.26186 16.0554C4.9136 16.0554 3.26587 14.4403 3.26587 12.1161C3.26587 9.91009 4.7656 8.37377 6.90666 8.37377C7.60719 8.37377 8.20906 8.55103 8.85039 8.7283C9.51145 8.91542 10.2021 9.12223 11.0211 9.12223C11.2776 9.12223 11.5341 9.10253 11.7906 9.06314V6.08897C11.5736 6.10867 11.3664 6.12837 11.1493 6.12837C10.4093 6.12837 9.73839 5.99049 9.03786 5.84277C8.29786 5.6852 7.53813 5.52763 6.64026 5.52763C4.8544 5.52763 3.19681 6.15791 1.98321 7.32C0.690682 8.55103 1.68708e-05 10.2646 1.68708e-05 12.2638C1.68708e-05 16.2327 2.86134 19 6.96586 19Z" fill="#726E68"/>
<path id="Vector_7" d="M65.8595 7.12304C65.8595 6.92607 65.8299 6.74881 65.7608 6.59123C65.7016 6.42382 65.6128 6.28594 65.4944 6.16776C65.3859 6.04958 65.2477 5.96095 65.0997 5.90186C64.9517 5.83292 64.7939 5.80338 64.6163 5.80338C64.4387 5.80338 64.2808 5.83292 64.1229 5.90186C63.9749 5.96095 63.8467 6.05943 63.7283 6.16776C63.6197 6.28594 63.5309 6.42382 63.4619 6.59123C63.4027 6.75865 63.3632 6.93592 63.3632 7.12304C63.3632 7.31016 63.3928 7.47758 63.452 7.63515C63.5112 7.79272 63.5901 7.94044 63.6987 8.05862C63.8072 8.1768 63.9355 8.27528 64.0933 8.34422C64.2413 8.41316 64.4189 8.4427 64.6064 8.4427C64.7741 8.4427 64.9419 8.41316 65.0899 8.34422C65.2379 8.27528 65.3661 8.18665 65.4845 8.06847C65.5931 7.95029 65.6819 7.81242 65.7509 7.65485C65.8299 7.49727 65.8595 7.32 65.8595 7.12304ZM66.2048 7.12304C66.2048 7.3594 66.1653 7.58591 66.0765 7.78287C65.9976 7.97984 65.8792 8.14725 65.7312 8.28513C65.5832 8.423 65.4155 8.53134 65.228 8.61013C65.0405 8.68891 64.8432 8.7283 64.6261 8.7283C64.3893 8.7283 64.1821 8.68891 63.9848 8.61013C63.7973 8.53134 63.6296 8.41316 63.4816 8.27528C63.3435 8.12756 63.2349 7.96014 63.156 7.77303C63.0771 7.57606 63.0376 7.3594 63.0376 7.13289C63.0376 6.89653 63.0771 6.67002 63.1659 6.47306C63.2547 6.27609 63.3632 6.10867 63.5112 5.9708C63.6592 5.83292 63.8269 5.72459 64.0144 5.6458C64.2019 5.56702 64.4091 5.52763 64.6163 5.52763C64.8235 5.52763 65.0208 5.56702 65.2181 5.6458C65.4056 5.72459 65.5733 5.83292 65.7213 5.9708C65.8693 6.10867 65.9779 6.27609 66.0667 6.47306C66.1653 6.66017 66.2048 6.88668 66.2048 7.12304ZM64.636 7.03441C64.6952 7.03441 64.7445 7.03441 64.7939 7.03441C64.8432 7.02456 64.8925 7.01471 64.932 6.99501C64.9715 6.97532 65.0011 6.94577 65.0208 6.91623C65.0405 6.87684 65.0504 6.82759 65.0504 6.75865C65.0504 6.69956 65.0405 6.66017 65.0109 6.63063C64.9912 6.60108 64.9616 6.57154 64.9221 6.56169C64.8827 6.55184 64.8432 6.53214 64.7939 6.53214C64.7445 6.5223 64.7051 6.5223 64.6557 6.5223H64.3005V7.04425H64.636V7.03441ZM64.3104 8.03892H64.0144V6.26624H64.6853C64.9024 6.26624 65.0603 6.30564 65.1688 6.38442C65.2773 6.46321 65.3365 6.59123 65.3365 6.77835C65.3365 6.93592 65.2872 7.0541 65.1984 7.13289C65.1096 7.21168 65.0011 7.25107 64.8629 7.27076L65.3661 8.04878H65.0307L64.5669 7.29046H64.2907V8.03892H64.3104Z" fill="#726E68"/>
<path id="Vector_8" d="M65.1003 5.92095C64.9523 5.85201 64.7945 5.82247 64.6267 5.82247C64.459 5.82247 64.2913 5.85201 64.1433 5.92095C63.9953 5.98004 63.867 6.06867 63.7585 6.18685C63.6499 6.30503 63.5611 6.44291 63.5019 6.60048C63.4427 6.75805 63.4132 6.93532 63.4132 7.12243C63.4132 7.2997 63.4427 7.46713 63.5019 7.6247C63.5611 7.78227 63.6401 7.92014 63.7387 8.03832C63.8473 8.1565 63.9755 8.24514 64.1235 8.31407C64.2715 8.38301 64.4393 8.41256 64.6267 8.41256C64.7945 8.41256 64.9523 8.38301 65.1003 8.32392C65.2483 8.25498 65.3766 8.16635 65.4851 8.05802C65.5937 7.93984 65.6825 7.81181 65.7417 7.65424C65.8009 7.49667 65.8305 7.3194 65.8305 7.12243C65.8305 6.93532 65.8009 6.75805 65.7417 6.60048C65.6825 6.44291 65.5937 6.30503 65.4851 6.18685C65.3766 6.06867 65.2483 5.98004 65.1003 5.92095ZM65.1102 8.35346C64.9622 8.41255 64.8043 8.45195 64.6267 8.45195C64.4393 8.45195 64.2617 8.4224 64.1137 8.35346C63.9657 8.28453 63.8275 8.18605 63.719 8.06787C63.6105 7.94969 63.5315 7.81181 63.4723 7.64439C63.4131 7.48682 63.3835 7.30955 63.3835 7.13229C63.3835 6.93532 63.4131 6.75805 63.4822 6.60048C63.5414 6.43306 63.6302 6.29518 63.7486 6.17701C63.8571 6.05883 63.9953 5.97019 64.1433 5.9111C64.2913 5.84216 64.459 5.81262 64.6366 5.81262C64.8043 5.81262 64.9721 5.84216 65.1201 5.9111C65.2681 5.97019 65.3963 6.06868 65.5147 6.17701C65.6233 6.29518 65.7121 6.43306 65.7811 6.60048C65.8403 6.7679 65.8798 6.94517 65.8798 7.13229C65.8798 7.32925 65.8502 7.50652 65.7811 7.67394C65.7219 7.83151 65.6331 7.96938 65.5147 8.08756C65.3963 8.19589 65.2582 8.28453 65.1102 8.35346ZM63.9755 8.63906C63.7782 8.55043 63.6105 8.4421 63.4625 8.29438C63.3244 8.14665 63.2158 7.97923 63.127 7.78227C63.0481 7.5853 63.0086 7.36864 63.0086 7.13229C63.0086 6.88608 63.0481 6.66942 63.1369 6.4626C63.2257 6.26564 63.3441 6.08837 63.4921 5.95049C63.6401 5.80277 63.8177 5.69444 64.0051 5.61566C64.2025 5.53687 64.4097 5.49748 64.6267 5.49748C64.8438 5.49748 65.0411 5.53687 65.2385 5.61566C65.4358 5.69444 65.6035 5.80277 65.7515 5.95049C65.8995 6.09822 66.0179 6.26564 66.1067 6.4626C66.1955 6.65957 66.235 6.88608 66.235 7.13229C66.235 7.37849 66.1955 7.59515 66.1067 7.80196C66.0179 7.99893 65.9094 8.1762 65.7515 8.31407C65.6035 8.4618 65.4358 8.57012 65.2385 8.64891C65.0411 8.7277 64.8438 8.76709 64.6267 8.76709C64.3998 8.75724 64.1827 8.71785 63.9755 8.63906ZM65.2286 8.60952C65.4161 8.53073 65.5838 8.4224 65.7318 8.28452C65.8798 8.14665 65.9883 7.97923 66.0771 7.78227C66.1659 7.5853 66.2054 7.36864 66.2054 7.12243C66.2054 6.87623 66.1659 6.65957 66.0771 6.4626C65.9982 6.26564 65.8798 6.09822 65.7318 5.96034C65.5838 5.82247 65.4161 5.71414 65.2286 5.63535C65.0411 5.55657 64.8438 5.51717 64.6267 5.51717C64.4097 5.51717 64.2123 5.55657 64.0249 5.63535C63.8374 5.71414 63.6598 5.82247 63.5217 5.96034C63.3737 6.09822 63.2651 6.26564 63.1763 6.4626C63.0974 6.65957 63.0481 6.87623 63.0481 7.12243C63.0481 7.34894 63.0876 7.5656 63.1665 7.76257C63.2454 7.95953 63.3539 8.12696 63.4921 8.26483C63.6302 8.41256 63.7979 8.52088 63.9953 8.59967C64.1926 8.67845 64.3998 8.71785 64.6366 8.71785C64.8438 8.7277 65.0411 8.68831 65.2286 8.60952ZM64.9918 6.63987C64.9721 6.61033 64.9425 6.59063 64.9129 6.57093C64.8833 6.55124 64.8438 6.54139 64.7945 6.54139C64.7451 6.53154 64.7057 6.53154 64.6662 6.53154H64.3406V6.99441H64.6366C64.6859 6.99441 64.7451 6.99441 64.7846 6.99441C64.8339 6.98456 64.8734 6.97471 64.903 6.95501C64.9326 6.93532 64.9622 6.91562 64.9819 6.88608C65.0017 6.85653 65.0115 6.80729 65.0115 6.7482C65.0214 6.69896 65.0115 6.66942 64.9918 6.63987ZM65.0214 6.90577C65.0017 6.93532 64.9721 6.96487 64.9326 6.98456C64.8931 7.00426 64.8537 7.0141 64.7945 7.02395C64.7451 7.02395 64.6958 7.02395 64.6366 7.02395H64.311V6.502H64.6662C64.7057 6.502 64.755 6.502 64.8043 6.51184C64.8537 6.51184 64.8931 6.52169 64.9326 6.54139C64.9721 6.56108 65.0017 6.58078 65.0214 6.61033C65.051 6.63987 65.0609 6.68911 65.0609 6.73836C65.051 6.81714 65.0411 6.86638 65.0214 6.90577ZM64.3406 8.06787H63.9854V6.23609H64.6859C64.903 6.23609 65.0707 6.27549 65.1891 6.36412C65.3075 6.45276 65.3667 6.59063 65.3667 6.77775C65.3667 6.94517 65.3174 7.07319 65.2187 7.15198C65.1398 7.22091 65.0313 7.27016 64.9227 7.28985L65.4259 8.07771H65.0214L64.5577 7.3194H64.3307V8.06787H64.3406ZM64.311 7.28001H64.5873L65.051 8.03832H65.3865L64.8833 7.26031C64.8931 7.26031 64.903 7.26031 64.9129 7.26031C65.0313 7.24061 65.1299 7.20122 65.2089 7.13229C65.2977 7.0535 65.347 6.94517 65.347 6.77775C65.347 6.60048 65.2878 6.4626 65.1793 6.38382C65.0707 6.30503 64.9129 6.26564 64.6958 6.26564H64.0249V8.03832H64.3209V7.28001H64.311Z" fill="#726E68"/>
</g>
</svg>
