<svg preserveAspectRatio="none" overflow="visible" style="display: block;" width="165.558" height="52.8162" viewBox="0 0 165.558 52.8162" fill="none" xmlns="http://www.w3.org/2000/svg">
<g id="logos">
<g id="Vector">
</g>
<path id="Vector_2" fill-rule="evenodd" clip-rule="evenodd" d="M35.5983 13.8083L36.7914 15.8766C36.912 16.0863 36.9754 16.3237 36.9754 16.5652C36.9754 16.8067 36.912 17.044 36.7914 17.2538L29.7055 29.5261L33.0508 35.3162C33.3062 35.7643 33.6769 36.1371 34.125 36.3966C34.5732 36.656 35.0827 36.7927 35.6014 36.7927C36.1202 36.7927 36.6297 36.656 37.0778 36.3966C37.526 36.1371 37.8967 35.7643 38.1521 35.3162L41.4964 29.5261L40.592 27.963L36.7966 34.5357C36.6755 34.7443 36.5012 34.9175 36.2912 35.038C36.0812 35.1585 35.843 35.2219 35.6004 35.2219C35.3578 35.2219 35.1196 35.1585 34.9096 35.038C34.6996 34.9175 34.5253 34.7443 34.4042 34.5357L31.5163 29.5261L38.0993 18.1267L39.2934 20.1919C39.4139 20.4022 39.4773 20.6401 39.4773 20.882C39.4773 21.124 39.4139 21.3618 39.2934 21.5722L34.6991 29.524L35.6035 31.0871L40.5951 22.4472L43.8763 28.115C44.1229 28.5444 44.2527 29.0302 44.2527 29.5245C44.2527 30.0189 44.1229 30.5046 43.8763 30.9341L40.5413 36.6943C40.0301 37.5755 38.4573 39.5442 35.5963 39.5442C32.7352 39.5442 31.1738 37.5755 30.6616 36.6943L27.337 30.9371C27.0898 30.5073 26.9598 30.021 26.9598 29.5261C26.9598 29.0312 27.0898 28.5448 27.337 28.115L35.5983 13.8083Z" fill="#726E68"/>
<path id="Vector_3" fill-rule="evenodd" clip-rule="evenodd" d="M62.0707 23.7225C59.4052 23.7297 57.2447 25.5885 57.2447 28.5647C57.2447 31.5408 59.1072 33.3658 62.0893 33.3658C63.2731 33.3658 64.5148 33.9686 64.5148 35.2831C64.5148 36.5976 63.449 37.3371 62.0893 37.3371C60.7297 37.3371 59.5904 36.5216 59.5904 35.2831H57.2447C57.2447 37.8588 59.3142 39.5451 62.0893 39.5451C64.8645 39.5451 66.8802 37.9173 66.8802 35.2831C66.8802 34.0631 66.4911 32.9211 64.9018 32.1262C66.4715 31.4073 66.9185 29.7436 66.9185 28.5626C66.9185 25.5844 64.7455 23.7225 62.0707 23.7225ZM62.0893 31.4125C60.7142 31.4125 59.5904 30.2314 59.5904 28.5647C59.5904 26.8979 60.7142 25.6737 62.0893 25.6737C63.4645 25.6737 64.5727 26.9133 64.5727 28.5606C64.5727 30.2078 63.449 31.4063 62.0893 31.4063V31.4125ZM119.655 29.5762C119.92 30.7059 120.959 31.6959 122.628 31.6959C123.499 31.6959 124.645 31.2707 125.187 30.7121L126.7 32.195C125.692 33.2364 124.044 33.7355 122.59 33.7355C119.605 33.7303 117.444 31.7575 117.444 28.7167C117.444 25.8247 119.675 23.7297 122.421 23.7194C125.318 23.7071 127.716 25.6922 127.456 29.5731H119.655V29.5762ZM125.212 27.777C124.943 26.6473 123.81 25.6686 122.45 25.6686C121.817 25.6741 121.204 25.8824 120.7 26.2624C120.197 26.6423 119.831 27.1736 119.656 27.777H125.212ZM108.751 29.5762C109.015 30.7059 110.055 31.6959 111.723 31.6959C112.595 31.6959 113.739 31.2707 114.283 30.7121L115.795 32.195C114.787 33.2364 113.139 33.7355 111.684 33.7355C108.702 33.7303 106.54 31.7575 106.54 28.7167C106.54 25.8247 108.77 23.7297 111.517 23.7194C114.414 23.7071 116.811 25.6922 116.551 29.5731H108.751V29.5762ZM114.306 27.777C114.037 26.6473 112.904 25.6686 111.546 25.6686C110.913 25.6741 110.3 25.8824 109.796 26.2624C109.293 26.6423 108.926 27.1736 108.752 27.777H114.306ZM73.7447 23.7081C72.6644 23.7081 71.6224 24.0357 70.7749 25.1335V19.743H68.4282V33.49H70.7812V28.6345C70.7812 27.2101 71.7445 26.0332 73.1342 26.0332C74.3872 26.0332 75.2947 26.7654 75.2947 28.4979V33.4849H77.6456V28.3336C77.6456 25.5402 76.4505 23.7122 73.7509 23.7122L73.7447 23.7081ZM100.782 23.7204C99.7021 23.7204 98.4294 24.1836 97.6968 25.2393L97.6202 23.9371H95.3438V37.6986L97.6968 37.4449V32.3706C98.3684 33.4099 99.8336 33.7375 100.837 33.7375C103.887 33.7375 105.658 31.4659 105.658 28.693C105.658 25.8976 103.713 23.7225 100.779 23.7225L100.782 23.7204ZM100.61 31.7C99.0109 31.7 97.911 30.2294 97.911 28.7485C97.911 27.2676 98.9116 25.6676 100.61 25.6676C102.308 25.6676 103.31 27.2645 103.31 28.7485C103.31 30.2325 102.211 31.7 100.61 31.7ZM133.154 33.7355C134.236 33.7355 135.507 33.2754 136.24 32.2166L136.32 33.4849H138.596V19.7676H136.243V25.0925C135.571 24.0532 134.082 23.742 133.081 23.742C130.035 23.742 128.28 25.9962 128.28 28.7742C128.28 31.5675 130.227 33.7427 133.158 33.7427L133.154 33.7355ZM133.327 25.7559C134.929 25.7559 136.029 27.2265 136.029 28.7105C136.029 30.1945 135.025 31.7914 133.327 31.7914C131.629 31.7914 130.628 30.1975 130.628 28.7105C130.628 27.2234 131.728 25.7559 133.327 25.7559ZM83.3719 31.8736C83.0739 31.8736 82.8545 31.7801 82.7117 31.5911C82.5689 31.4022 82.4955 31.1023 82.4955 30.6843V25.989H84.3921L84.6084 23.9464H82.5172V21.3255L80.1373 21.5782V23.9464H78.3492V25.989H80.1404L80.1497 30.7326C80.1497 31.7144 80.3811 32.4583 80.844 32.9642C81.3069 33.4702 81.9895 33.7279 82.8918 33.7375C83.2981 33.7364 83.7023 33.678 84.0921 33.564C84.4771 33.4585 84.8421 33.291 85.1723 33.0679L84.3632 31.5655C84.0675 31.7572 83.7248 31.8655 83.3719 31.8787V31.8736ZM93.0601 28.3747C92.104 27.7831 90.971 27.7041 89.8763 27.6363C89.2326 27.5983 88.2341 27.4432 88.2341 26.6093C88.2341 26.0106 88.855 25.6635 89.987 25.6635C90.9037 25.6635 91.6839 25.876 92.3669 26.5128L93.6944 24.9723C92.5821 24.009 91.4511 23.7225 89.9487 23.7225C88.1958 23.7225 85.8935 24.4937 85.8935 26.6884C85.8956 27.137 86.0128 27.5776 86.234 27.9688C86.4552 28.36 86.7732 28.6887 87.158 28.9241C88.051 29.4787 89.1892 29.5557 90.196 29.6594C90.8675 29.7292 91.9695 29.9008 91.7926 30.8291C91.6653 31.4823 90.8893 31.6682 90.3202 31.6928C89.7168 31.7277 89.1116 31.6723 88.5249 31.5285C87.904 31.3673 87.3867 31.0602 86.8538 30.7069L85.6628 32.231L85.8066 32.3491C87.3525 33.6102 89.4893 34.0271 91.4253 33.5907C92.8801 33.2631 94.1404 32.2022 94.1404 30.6176C94.1404 29.7251 93.8352 28.8543 93.0601 28.3747ZM53.5476 33.4869H55.9006V23.9536H53.5476V33.4869ZM53.3406 20.9034C53.3433 20.6337 53.4262 20.3707 53.579 20.1477C53.7319 19.9246 53.9477 19.7513 54.1995 19.6497C54.4513 19.548 54.7277 19.5226 54.994 19.5764C55.2604 19.6303 55.5047 19.7611 55.6963 19.9524C55.8879 20.1437 56.0183 20.387 56.071 20.6517C56.1236 20.9163 56.0963 21.1905 55.9924 21.4398C55.8885 21.689 55.7126 21.9022 55.487 22.0526C55.2613 22.2029 54.9959 22.2837 54.7241 22.2847C54.5431 22.285 54.3638 22.2497 54.1967 22.1808C54.0295 22.1119 53.8778 22.0107 53.7504 21.8832C53.4912 21.6236 53.3458 21.273 53.3458 20.9075L53.3406 20.9034ZM51.6167 33.5013V19.7502H49.2855V33.5013H51.6167Z" fill="#726E68"/>
</g>
</svg>
